<svg width="195" height="215" viewBox="0 0 195 215" fill="none" xmlns="http://www.w3.org/2000/svg">
<path d="M67.3252 3.31569C24.0329 11.7766 -8.8688 33.1564 7.92251 79.2842C20.8574 114.818 73.9885 135.365 106.907 108.093C114.794 101.559 112.87 87.9438 107.902 80.3524C100.044 68.3432 87.1381 66.0192 73.1648 70.2847C47.7811 78.0332 23.3977 105.953 32.7634 131.812C47.4199 172.279 92.8614 190.534 135.768 192.623C144.315 193.04 208.053 186.097 172.879 179.169C166.496 177.912 147.23 174.853 153.514 176.485C163.933 179.19 169.91 180.302 181.001 179.763C183.203 179.655 194.637 177.587 190.862 182.36C183.134 192.131 176.241 202.41 168.263 212.031" stroke="#1C1C1C" stroke-width="5" stroke-linecap="round"/>
</svg>
